#!OML:ASF H:\Terrain\Patient Classification 1\Terrain2\Thursday\justin.ASF
:FULLY-SPECIFIED
:DEGREES
4017
root 28.6186 17.8976 22.0714 1813.46 -263.407 -703.4
lowerback 5.67013 0.564777 -0.272458
upperback 1.27545 0.804895 1.6404
thorax -1.8932 0.419362 1.78118
lowerneck -12.9295 -2.31696 -8.49372
upperneck 36.0242 -0.401033 2.7344
head 14.6803 -0.429841 2.71017
rclavicle 6.73383e-015 4.96962e-015
rhumerus -31.2529 -11.5679 -79.8772
rradius 30.6268
rwrist -13.9129
rhand -23.7952 10.6282
rfingers 7.12502
rthumb 2.6751 -19.3348
lclavicle 6.73383e-015 4.96962e-015
lhumerus -34.4314 5.4849 82.811
lradius 35.2687
lwrist 9.04644
lhand -18.6628 20.6677
lfingers 7.12502
lthumb 7.63062 50.5101
rfemur -9.69537 3.83115 20.7119
rtibia 36.0123
rfoot -20.0065 2.62377
rtoes 9.88412
lfemur -5.79175 -2.61822 -19.2057
ltibia 29.2005
lfoot -15.1957 -7.17644
ltoes 24.5224
4018
root 28.6391 17.8994 22.0867 1814.5 -263.235 -702.467
lowerback 5.67067 0.615725 0.149888
upperback 1.26255 0.899791 1.67536
thorax -1.90417 0.465464 1.5728
lowerneck -12.9125 -2.23068 -8.69408
upperneck 36.0354 -0.20529 2.75127
head 14.6706 -0.3669 2.78481
rclavicle 1.51573e-014 -1.19271e-015
rhumerus -31.1051 -11.2872 -80.0009
rradius 30.0798
rwrist -13.3603
rhand -23.7638 10.7411
rfingers 7.12502
rthumb 2.70551 -19.2215
lclavicle 1.51573e-014 -1.19271e-015
lhumerus -34.36 5.37002 82.7164
lradius 35.4822
lwrist 8.97779
lhand -16.6761 21.2601
lfingers 7.12502
lthumb 9.54787 51.0238
rfemur -9.47617 4.18519 21.0146
rtibia 35.6127
rfoot -20.0893 2.57559
rtoes 11.5915
lfemur -5.94358 -2.93828 -18.9734
ltibia 29.3175
lfoot -15.2075 -7.05881
ltoes 24.9374
4019
root 28.6524 17.8998 22.107 1814.88 -263.202 -702.242
lowerback 5.78215 0.770914 0.459662
upperback 1.19063 1.12388 1.57713
thorax -2.03851 0.57526 1.27935
lowerneck -12.8388 -2.22257 -8.54689
upperneck 35.9823 -0.188058 2.62179
head 14.6263 -0.352488 2.70613
rclavicle 6.95746e-015 6.55989e-015
rhumerus -31.1322 -11.4516 -80.1666
rradius 29.5463
rwrist -12.7919
rhand -23.3353 10.96
rfingers 7.12502
rthumb 3.1193 -18.997
lclavicle 6.95746e-015 6.55989e-015
lhumerus -34.4009 4.97142 82.7545
lradius 35.6877
lwrist 9.15047
lhand -17.3114 21.299
lfingers 7.12502
lthumb 8.93484 51.0898
rfemur -9.3684 4.67474 21.1639
rtibia 35.2409
rfoot -19.8621 2.59932
rtoes 12.5073
lfemur -6.16978 -3.48803 -18.9418
ltibia 29.5769
lfoot -15.399 -6.37655
ltoes 23.3142
4020
root 28.6693 17.8982 22.1316 1819.34 -263.11 -697.892
lowerback 5.8023 0.970899 1.23249
upperback 1.15864 1.43876 1.55752
thorax -2.06942 0.728277 0.801502
lowerneck -12.8302 -2.29918 -8.3178
upperneck 36.0135 -0.326649 2.53813
head 14.6464 -0.388926 2.61092
rclavicle 1.70644e-014 -2.00773e-014
rhumerus -31.1667 -11.5648 -80.4651
rradius 29.083
rwrist -12.4631
rhand -22.8704 10.742
rfingers 7.12502
rthumb 3.56827 -19.2079
lclavicle 1.70644e-014 -2.00773e-014
lhumerus -34.3689 4.52825 82.7028
lradius 35.7839
lwrist 9.02817
lhand -18.082 20.9503
lfingers 7.12502
lthumb 8.19116 50.7715
rfemur -9.44229 4.91436 21.8683
rtibia 35.1736
rfoot -19.6965 2.22566
rtoes 11.5777
lfemur -6.33394 -3.77706 -18.44
ltibia 29.8617
lfoot -15.8965 -5.06
ltoes 17.0517
4021
root 28.6871 17.8919 22.1508 1823.3 -262.977 -693.975
lowerback 5.79238 1.09368 1.91631
upperback 1.22465 1.65021 1.69539
thorax -1.9821 0.832972 0.545534
lowerneck -12.9742 -2.32058 -8.50948
upperneck 36.1409 -0.279846 2.56977
head 14.7405 -0.389719 2.67122
rclavicle 6.49777e-015 -1.41137e-014
rhumerus -30.9949 -11.0748 -80.7308
rradius 28.573
rwrist -12.1161
rhand -23.1038 10.6483
rfingers 7.12502
rthumb 3.34283 -19.3052
lclavicle 6.49777e-015 -1.41137e-014
lhumerus -34.3461 5.28345 82.6111
lradius 35.8339
lwrist 7.92994
lhand -17.3279 20.4283
lfingers 7.12502
lthumb 8.91892 50.2198
rfemur -9.46608 4.52159 22.4371
rtibia 35.0677
rfoot -19.6349 2.36681
rtoes 10.1873
lfemur -6.51894 -4.0898 -17.899
ltibia 30.2229
lfoot -16.0907 -4.58835
ltoes 16.4278
4022
root 28.7054 17.8772 22.1664 1826.86 -262.798 -690.369
lowerback 5.82533 1.14567 2.57007
upperback 1.34725 1.76949 1.90809
thorax -1.861 0.894716 0.390631
lowerneck -13.252 -2.22052 -8.59051
upperneck 36.3435 0.026394 2.36257
head 14.884 -0.298408 2.65708
rclavicle 1.2275e-014 1.59028e-015
rhumerus -30.7058 -10.4399 -80.8907
rradius 28.0638
rwrist -11.7901
rhand -23.2482 10.7911
rfingers 7.12502
rthumb 3.20342 -19.1646
lclavicle 1.2275e-014 1.59028e-015
lhumerus -34.3913 5.80798 82.8255
lradius 35.8099
lwrist 8.07116
lhand -16.7516 20.2038
lfingers 7.12502
lthumb 9.47506 49.9708
rfemur -9.33149 3.9515 22.8899
rtibia 34.8286
rfoot -19.4925 3.32945
rtoes 11.658
lfemur -6.6031 -3.6435 -17.3095
ltibia 30.6441
lfoot -16.3713 -4.54589
ltoes 13.5382
4023
root 28.7293 17.9037 22.1799 1831.05 -262.438 -686.173
lowerback 5.80413 1.22191 3.43265
upperback 1.3934 1.93135 2.08128
thorax -1.77743 0.976721 0.0765713
lowerneck -13.3038 -2.07566 -8.46638
upperneck 36.4902 0.3243 2.15548
head 14.9464 -0.177416 2.60318
rclavicle 2.5345e-015 4.17448e-015
rhumerus -30.6325 -10.219 -80.9373
rradius 27.7222
rwrist -11.4411
rhand -22.7096 10.6189
rfingers 7.12502
rthumb 3.72352 -19.3283
lclavicle 2.5345e-015 4.17448e-015
lhumerus -34.4528 5.81437 83.0533
lradius 35.4879
lwrist 8.77459
lhand -17.3038 19.2814
lfingers 7.12502
lthumb 8.94219 49.0719
rfemur -9.05069 3.16089 23.4867
rtibia 34.2988
rfoot -19.1632 4.32772
rtoes 12.7678
lfemur -6.89872 -3.84365 -16.4229
ltibia 31.1411
lfoot -16.2507 -5.58454
ltoes 20.1814
4024
root 28.7475 17.9293 22.1947 1832.27 -262.232 -685.04
lowerback 5.7939 1.23262 3.68256
upperback 1.38761 1.96978 2.27815
thorax -1.77551 0.997403 0.137024
lowerneck -13.0183 -1.82302 -8.56731
upperneck 36.3793 0.787495 1.98124
head 14.7989 -0.00587857 2.6173
rclavicle 2.18787e-014 -7.55382e-015
rhumerus -30.5744 -9.86869 -80.8623
rradius 27.4441
rwrist -10.9047
rhand -21.8706 10.2767
rfingers 7.12502
rthumb 4.53375 -19.6548
lclavicle 2.18787e-014 -7.55382e-015
lhumerus -34.7129 7.48006 82.6516
lradius 35.2395
lwrist 6.31939
lhand -17.5737 17.177
lfingers 7.12502
lthumb 8.68178 46.9785
rfemur -8.9212 2.40534 23.6755
rtibia 33.8918
rfoot -18.9592 4.91546
rtoes 11.7443
lfemur -7.25915 -4.90435 -16.0059
ltibia 31.5559
lfoot -16.0279 -6.44969
ltoes 29.5661
4025
root 28.7625 17.9492 22.2088 1833.16 -262.026 -684.123
lowerback 5.89034 1.12701 3.76668
upperback 1.51349 1.85337 2.61533
thorax -1.71127 0.946282 0.444452
lowerneck -13.4441 -1.64816 -8.56664
upperneck 36.5179 1.31906 1.41745
head 14.9425 0.138312 2.47442
rclavicle -2.13942e-014 -2.90226e-014
rhumerus -30.2396 -9.19181 -80.7735
rradius 27.1834
rwrist -10.653
rhand -21.3689 10.2902
rfingers 7.12502
rthumb 5.01816 -19.6303
lclavicle -2.13942e-014 -2.90226e-014
lhumerus -35.1046 6.58237 84.4444
lradius 36.6406
lwrist 13.1401
lhand -22.9725 20.9207
lfingers 7.12502
lthumb 3.46962 50.8722
rfemur -8.57076 1.81457 23.8823
rtibia 33.307
rfoot -18.8506 5.38853
rtoes 11.1105
lfemur -7.45395 -5.63334 -15.5675
ltibia 31.9322
lfoot -15.747 -7.27326
ltoes 36.1484
4026
root 28.7723 17.9087 22.223 1834.3 -261.724 -682.916
lowerback 6.00525 1.16916 4.27777
upperback 1.63316 1.95122 2.69209
thorax -1.63576 0.999299 0.230604
lowerneck -13.474 -1.61206 -8.52746
upperneck 36.367 1.40542 1.27237
head 14.8747 0.162892 2.41616
rclavicle -1.11568e-014 7.55382e-015
rhumerus -30.1361 -8.90273 -80.8983
rradius 27.1108
rwrist -10.8402
rhand -21.1596 10.3315
rfingers 7.12502
rthumb 5.22021 -19.5842
lclavicle -1.11568e-014 7.55382e-015
lhumerus -34.9286 8.04125 83.6676
lradius 35.7683
lwrist 8.71031
lhand -22.6568 20.0387
lfingers 7.12502
lthumb 3.7745 49.985
rfemur -8.42315 1.01418 24.1696
rtibia 33.0998
rfoot -18.7757 5.99094
rtoes 11.3397
lfemur -7.5153 -3.29673 -15.2259
ltibia 32.098
lfoot -16.2434 -7.0015
ltoes 22.3303
